<svg xmlns="http://www.w3.org/2000/svg" width="56.188" height="62" viewBox="0 0 56.188 62">
  <g id="Bell" transform="translate(-3)">
    <path id="Path_9" data-name="Path 9" d="M41.344,52H21.969a.969.969,0,0,0-.969.969,10.656,10.656,0,1,0,21.313,0A.969.969,0,0,0,41.344,52Z" transform="translate(-0.563 -1.625)" fill="#bc8819"/>
    <path id="Path_10" data-name="Path 10" d="M31.719,0A8.728,8.728,0,0,0,23,8.719a9.051,9.051,0,0,0,.238,2.05.969.969,0,0,0,1.39.64,15.461,15.461,0,0,1,14.181,0,.969.969,0,0,0,1.39-.64,9.051,9.051,0,0,0,.238-2.05A8.728,8.728,0,0,0,31.719,0Z" transform="translate(-0.625)" fill="#bc8819"/>
    <path id="Path_11" data-name="Path 11" d="M56.243,41.87a15.243,15.243,0,0,1-7.712-13.241V25.869A18.166,18.166,0,0,0,43.1,12.99,17.128,17.128,0,0,0,30.761,8a17.523,17.523,0,0,0-17.1,17.435v3.192A15.243,15.243,0,0,1,5.944,41.87,5.7,5.7,0,0,0,8.707,52.563H53.481A5.7,5.7,0,0,0,56.243,41.87Z" transform="translate(0 -0.25)" fill="#ffb822"/>
  </g>
</svg>
