<svg xmlns="http://www.w3.org/2000/svg" width="23.448" height="20.861" viewBox="0 0 23.448 20.861">
  <path id="heart" d="M21.588,2.042A6.305,6.305,0,0,0,16.9,0a5.9,5.9,0,0,0-3.684,1.272,7.538,7.538,0,0,0-1.489,1.555,7.534,7.534,0,0,0-1.49-1.555A5.9,5.9,0,0,0,6.551,0,6.305,6.305,0,0,0,1.86,2.042,7.329,7.329,0,0,0,0,7.047a8.727,8.727,0,0,0,2.326,5.713,49.59,49.59,0,0,0,5.821,5.464c.807.687,1.721,1.467,2.67,2.3a1.377,1.377,0,0,0,1.813,0c.949-.83,1.864-1.61,2.671-2.3a49.562,49.562,0,0,0,5.821-5.464,8.726,8.726,0,0,0,2.325-5.713,7.328,7.328,0,0,0-1.86-5.005Zm0,0" transform="translate(0)" fill="#ea4335"/>
</svg>
