<svg xmlns="http://www.w3.org/2000/svg" width="15.509" height="12.601" viewBox="0 0 15.509 12.601">
  <path id="Icon_awesome-list-ul" data-name="Icon awesome-list-ul" d="M1.454,3.375A1.454,1.454,0,1,0,2.908,4.829,1.454,1.454,0,0,0,1.454,3.375Zm0,4.847A1.454,1.454,0,1,0,2.908,9.676,1.454,1.454,0,0,0,1.454,8.222Zm0,4.847a1.454,1.454,0,1,0,1.454,1.454,1.454,1.454,0,0,0-1.454-1.454Zm13.571.485H5.331a.485.485,0,0,0-.485.485v.969a.485.485,0,0,0,.485.485h9.693a.485.485,0,0,0,.485-.485v-.969A.485.485,0,0,0,15.025,13.553Zm0-9.693H5.331a.485.485,0,0,0-.485.485v.969a.485.485,0,0,0,.485.485h9.693a.485.485,0,0,0,.485-.485V4.344A.485.485,0,0,0,15.025,3.86Zm0,4.847H5.331a.485.485,0,0,0-.485.485v.969a.485.485,0,0,0,.485.485h9.693a.485.485,0,0,0,.485-.485V9.191A.485.485,0,0,0,15.025,8.706Z" transform="translate(0 -3.375)" fill="#f9fafb"/>
</svg>
