<svg xmlns="http://www.w3.org/2000/svg" width="64.067" height="62" viewBox="0 0 64.067 62">
  <g id="Password" transform="translate(-1 -2)">
    <path id="Path_92" data-name="Path 92" d="M39.5,18.533H25.033A1.033,1.033,0,0,1,24,17.5V10.267a8.267,8.267,0,1,1,16.533,0V17.5A1.033,1.033,0,0,1,39.5,18.533ZM26.067,16.467h12.4v-6.2a6.2,6.2,0,1,0-12.4,0Z" transform="translate(0.767 0)" fill="#bc8819"/>
    <path id="Path_163" data-name="Path 163" d="M7.233,0h49.6a7.233,7.233,0,0,1,7.233,7.233v6.2a7.233,7.233,0,0,1-7.233,7.233H7.233A7.233,7.233,0,0,1,0,13.433v-6.2A7.233,7.233,0,0,1,7.233,0Z" transform="translate(1 43.333)" fill="#fffae6"/>
    <g id="Group_12" data-name="Group 12" transform="translate(7.717 16.467)">
      <path id="Path_93" data-name="Path 93" d="M43.531,47.3a1.033,1.033,0,0,0-1.461,0l-3.4,3.4-3.4-3.4A1.033,1.033,0,1,0,33.8,48.764l3.4,3.4-3.4,3.4a1.033,1.033,0,1,0,1.461,1.461l3.4-3.4,3.4,3.4a1.033,1.033,0,1,0,1.461-1.461l-3.4-3.4,3.4-3.4A1.033,1.033,0,0,0,43.531,47.3Z" transform="translate(-6.633 -14.967)" fill="#ffb822"/>
      <path id="Path_94" data-name="Path 94" d="M53.128,52.167l3.4-3.4A1.033,1.033,0,1,0,55.069,47.3l-3.4,3.4-3.4-3.4A1.033,1.033,0,1,0,46.8,48.764l3.4,3.4-3.4,3.4a1.033,1.033,0,1,0,1.461,1.461l3.4-3.4,3.4,3.4a1.033,1.033,0,1,0,1.461-1.461Z" transform="translate(-6.2 -14.967)" fill="#ffb822"/>
      <path id="Path_95" data-name="Path 95" d="M17.531,47.3a1.033,1.033,0,0,0-1.461,0l-3.4,3.4-3.4-3.4A1.033,1.033,0,1,0,7.8,48.764l3.4,3.4-3.4,3.4a1.033,1.033,0,1,0,1.461,1.461l3.4-3.4,3.4,3.4a1.033,1.033,0,1,0,1.461-1.461l-3.4-3.4,3.4-3.4A1.033,1.033,0,0,0,17.531,47.3Z" transform="translate(-7.5 -14.967)" fill="#ffb822"/>
      <path id="Path_96" data-name="Path 96" d="M30.531,47.3a1.033,1.033,0,0,0-1.461,0l-3.4,3.4-3.4-3.4A1.033,1.033,0,1,0,20.8,48.764l3.4,3.4-3.4,3.4a1.033,1.033,0,1,0,1.461,1.461l3.4-3.4,3.4,3.4a1.033,1.033,0,1,0,1.461-1.461l-3.4-3.4,3.4-3.4a1.033,1.033,0,0,0,0-1.461Z" transform="translate(-7.067 -14.967)" fill="#ffb822"/>
      <rect id="Rectangle_35" data-name="Rectangle 35" width="31" height="29" rx="7" transform="translate(10.283 -0.467)" fill="#ffb822"/>
    </g>
    <path id="Path_97" data-name="Path 97" d="M35.379,23.119a5.159,5.159,0,1,0-6.312,8.161v4.153a3.1,3.1,0,0,0,6.2,0V31.279a5.146,5.146,0,0,0,.112-8.16Z" transform="translate(0.867 0.667)" fill="#bc8819"/>
  </g>
</svg>
