<svg xmlns="http://www.w3.org/2000/svg" width="44.005" height="47" viewBox="0 0 44.005 47">
  <g id="Power" transform="translate(-9.995 -7)">
    <g id="Group_16" data-name="Group 16">
      <path id="Path_122" data-name="Path 122" d="M32,7a4,4,0,0,0-4,4V22a4,4,0,0,0,8,0V11a4,4,0,0,0-4-4Z" fill="#ff4343"/>
      <path id="Path_123" data-name="Path 123" d="M44.172,13.652a3.9,3.9,0,0,0-4.051-.173,4,4,0,0,0-.3,6.889,14,14,0,1,1-15.635,0,4,4,0,0,0-.3-6.878,3.919,3.919,0,0,0-4.072.18,21.837,21.837,0,0,0-9.8,19.141A22.148,22.148,0,0,0,30.671,53.96q.677.041,1.347.04a21.79,21.79,0,0,0,15.061-5.993,22.009,22.009,0,0,0-2.907-34.354Z" fill="#ff4343"/>
    </g>
  </g>
</svg>
