<svg xmlns="http://www.w3.org/2000/svg" width="64" height="64" viewBox="0 0 64 64">
  <g id="Setting" transform="translate(0 0)">
    <path id="Path_75" data-name="Path 75" d="M61.345,24.83l-6.4-.641-1.2-2.886,4.075-4.982a2.941,2.941,0,0,0-.2-3.953L51.632,6.377a2.939,2.939,0,0,0-3.952-.2L42.7,10.256l-2.886-1.2-.641-6.405A2.94,2.94,0,0,0,36.236,0H27.764a2.94,2.94,0,0,0-2.935,2.656l-.64,6.4-2.893,1.2L16.32,6.18a2.941,2.941,0,0,0-3.952.2L6.377,12.368a2.941,2.941,0,0,0-.2,3.953L10.256,21.3l-1.2,2.886-6.405.641A2.94,2.94,0,0,0,0,27.764v8.472A2.94,2.94,0,0,0,2.655,39.17l6.405.641,1.2,2.886L6.18,47.679a2.941,2.941,0,0,0,.2,3.953l5.991,5.991a2.939,2.939,0,0,0,3.951.2L21.3,53.749l2.894,1.2.64,6.4A2.94,2.94,0,0,0,27.764,64h8.473a2.94,2.94,0,0,0,2.935-2.656l.64-6.4,2.894-1.2L47.68,57.82a2.938,2.938,0,0,0,3.952-.2l5.991-5.991a2.941,2.941,0,0,0,.2-3.953L53.744,42.7l1.2-2.887,6.405-.641A2.94,2.94,0,0,0,64,36.236V27.764A2.94,2.94,0,0,0,61.345,24.83Z" fill="#ffb822"/>
    <circle id="Ellipse_13" data-name="Ellipse 13" cx="16" cy="16" r="16" transform="translate(16 16)" fill="#fffae6"/>
  </g>
</svg>
