<svg xmlns="http://www.w3.org/2000/svg" width="30" height="30" viewBox="0 0 30 30">
  <g id="Group_564" data-name="Group 564" transform="translate(-593 -972)">
    <circle id="Ellipse_28" data-name="Ellipse 28" cx="15" cy="15" r="15" transform="translate(593 972)" fill="#fbbc05"/>
    <path id="clock" d="M8.594,0a8.594,8.594,0,1,0,8.594,8.594A8.6,8.6,0,0,0,8.594,0Zm4.087,13.039a.715.715,0,0,1-1.013,0L8.087,9.458a.713.713,0,0,1-.21-.506V4.3a.716.716,0,1,1,1.432,0V8.655l3.371,3.371a.715.715,0,0,1,0,1.013Zm0,0" transform="translate(599.798 978.798)" fill="#fff"/>
  </g>
</svg>
