<svg xmlns="http://www.w3.org/2000/svg" width="18.181" height="22.739" viewBox="0 0 18.181 22.739">
  <g id="Icon_ionic-ios-notifications" data-name="Icon ionic-ios-notifications" transform="translate(-6.761 -3.93)">
    <path id="Path_530" data-name="Path 530" d="M17.343,31.348c1.768,0,2.734-1.25,2.734-3.012H14.6C14.6,30.1,15.57,31.348,17.343,31.348Z" transform="translate(-1.503 -4.678)" fill="#bababa"/>
    <path id="Path_531" data-name="Path 531" d="M24.712,20.77c-.875-1.154-2.6-1.83-2.6-7,0-5.3-2.342-7.434-4.524-7.945-.2-.051-.352-.119-.352-.335V5.329a1.387,1.387,0,1,0-2.773,0v.165c0,.21-.148.284-.352.335-2.188.517-4.524,2.643-4.524,7.945,0,5.166-1.722,5.837-2.6,7a1.128,1.128,0,0,0,.9,1.807H23.814A1.128,1.128,0,0,0,24.712,20.77Z" fill="#bababa"/>
  </g>
</svg>
