<svg id="Group_564" data-name="Group 564" xmlns="http://www.w3.org/2000/svg" width="30" height="30" viewBox="0 0 30 30">
  <path id="Path_533" data-name="Path 533" d="M15,0A15,15,0,1,1,0,15,15,15,0,0,1,15,0Z" fill="#bababa"/>
  <path id="Icon_ionic-ios-close" data-name="Icon ionic-ios-close" d="M20.447,18.693l5.29-5.29a1.24,1.24,0,0,0-1.753-1.753l-5.29,5.29-5.29-5.29A1.24,1.24,0,1,0,11.65,13.4l5.29,5.29-5.29,5.29A1.24,1.24,0,0,0,13.4,25.737l5.29-5.29,5.29,5.29a1.24,1.24,0,0,0,1.753-1.753Z" transform="translate(-3.691 -3.693)" fill="#fff"/>
</svg>
